# Workshop medium screw
mtllib workshop_medium_phillips_screw.mtl
usemtl material_workshop_medium_phillips_screw

v -0.005005 0.000000 0.014477
v -0.005771 0.000000 0.013654
v -0.004909 0.000976 0.014477
v -0.005660 0.001125 0.013654
v -0.006699 0.001332 0.012975
v -0.005332 0.002209 0.013654
v -0.006310 0.002614 0.012975
v -0.004798 0.003205 0.013654
v -0.004080 0.004080 0.013654
v -0.005678 0.003795 0.012975
v -0.004164 0.002781 0.014477
v -0.003539 0.003539 0.014477
v -0.002781 0.004164 0.014477
v -0.003309 0.003309 0.015100
v -0.002599 0.003891 0.015100
v -0.003891 0.002599 0.015100
v -0.004323 0.001790 0.015100
v -0.004588 0.000913 0.015100
v -0.004626 0.001916 0.014477
v -0.004679 0.000000 0.015100
v -0.001790 0.004323 0.015100
v -0.000913 0.004588 0.015100
v 0.000000 0.004679 0.015100
v 0.000000 0.005005 0.014477
v 0.000000 0.005771 0.013654
v -0.001125 0.005660 0.013654
v -0.003241 0.003241 0.016058
v -0.000976 0.004909 0.014477
v -0.001916 0.004626 0.014477
v -0.002209 0.005332 0.013654
v -0.002614 0.006310 0.012975
v -0.003205 0.004798 0.013654
v -0.003795 0.005678 0.012975
v -0.004828 0.004828 0.012975
v -0.003868 0.005789 0.012798
v -0.002664 0.006434 0.012798
v -0.003989 0.005867 0.012262
v -0.003989 0.005867 0.012262
v -0.004925 0.004925 0.012798
v -0.005036 0.004990 0.012262
v -0.005036 0.004990 0.012262
v -0.005789 0.003868 0.012798
v -0.006434 0.002664 0.012798
v -0.005900 0.003941 0.012262
v -0.005900 0.003941 0.012262
v -0.006542 0.002725 0.012262
v -0.006542 0.002725 0.012262
v -0.002788 0.006517 0.012262
v -0.002788 0.006517 0.012262
v -0.001390 0.006858 0.012262
v -0.001390 0.006858 0.012262
v -0.001358 0.006831 0.012798
v 0.000000 0.006960 0.012262
v 0.000000 0.006960 0.012262
v 0.000000 0.006965 0.012798
v -0.006957 0.000000 0.012262
v -0.006957 0.000000 0.012262
v -0.006957 0.000000 0.012262
v -0.006965 0.000000 0.012798
v -0.006831 0.001358 0.012798
v -0.006828 0.000000 0.012975
v -0.006858 0.001383 0.012262
v -0.006858 0.001383 0.012262
v -0.007000 0.001668 0.012195
v -0.007000 0.001668 0.012195
v -0.007000 0.000000 0.012219
v -0.007000 0.000000 0.012219
v -0.007000 0.000000 0.012219
v -0.006995 0.000000 0.001306
v -0.006995 0.000000 0.001306
v -0.006995 0.000000 0.001306
v -0.006654 0.000000 0.001054
v -0.006654 0.000000 0.001054
v -0.006992 0.001562 0.001456
v -0.006992 0.001562 0.001456
v -0.005210 0.000000 0.000358
v -0.005210 0.000000 0.000358
v -0.005948 0.000000 0.000681
v -0.005948 0.000000 0.000681
v -0.005807 0.001287 0.000681
v -0.005392 0.002513 0.000681
v -0.006497 0.001441 0.001054
v -0.006029 0.002811 0.001054
v -0.005450 0.003817 0.001054
v -0.006494 0.003029 0.001458
v -0.005870 0.004111 0.001458
v -0.005069 0.005069 0.001458
v -0.004111 0.005870 0.001458
v -0.005380 0.005380 0.002033
v -0.006231 0.004363 0.002033
v -0.004363 0.006231 0.002033
v -0.005481 0.005481 0.002632
v -0.004475 0.006333 0.002632
v -0.003334 0.007000 0.002632
v -0.003334 0.007000 0.002632
v -0.004475 0.006333 0.012046
v -0.004475 0.006333 0.012046
v -0.005481 0.005481 0.012022
v -0.005481 0.005481 0.012022
v -0.003334 0.007000 0.012113
v -0.003334 0.007000 0.012113
v -0.003334 0.007000 0.012113
v -0.001668 0.007000 0.012195
v -0.001668 0.007000 0.012195
v 0.000000 0.007000 0.012219
v 0.000000 0.007000 0.012219
v -0.001562 0.006992 0.001456
v -0.001562 0.006992 0.001456
v -0.003029 0.006494 0.001458
v 0.000000 0.006995 0.001306
v 0.000000 0.006995 0.001306
v 0.000000 0.006995 0.001306
v 0.000000 0.006654 0.001054
v 0.000000 0.006654 0.001054
v 0.000000 0.005948 0.000681
v 0.000000 0.005948 0.000681
v -0.001441 0.006497 0.001054
v -0.002811 0.006029 0.001054
v -0.001287 0.005807 0.000681
v -0.002513 0.005392 0.000681
v -0.001127 0.005086 0.000358
v 0.000000 0.005210 0.000358
v 0.000000 0.005210 0.000358
v 0.000000 0.004138 0.000038
v 0.000000 0.004138 0.000038
v -0.000895 0.004040 0.000038
v -0.001749 0.003749 0.000038
v -0.002374 0.003390 0.000038
v -0.002925 0.002925 0.000038
v -0.003390 0.002374 0.000038
v -0.003683 0.003683 0.000358
v -0.004267 0.002988 0.000358
v -0.002988 0.004267 0.000358
v -0.002202 0.004722 0.000358
v -0.003413 0.004874 0.000681
v -0.003817 0.005450 0.001054
v -0.004207 0.004207 0.000681
v -0.004705 0.004705 0.001054
v -0.004874 0.003413 0.000681
v -0.004722 0.002202 0.000358
v -0.005086 0.001127 0.000358
v -0.004040 0.000895 0.000038
v -0.003749 0.001749 0.000038
v -0.004138 0.000000 0.000038
v -0.004138 0.000000 0.000038
v -0.002993 0.006992 0.002034
v -0.002993 0.006992 0.002034
v -0.006333 0.004475 0.012046
v -0.006333 0.004475 0.012046
v -0.007000 0.003334 0.012113
v -0.007000 0.003334 0.012113
v -0.007000 0.003334 0.012113
v -0.006333 0.004475 0.002632
v -0.007000 0.003334 0.002632
v -0.007000 0.003334 0.002632
v -0.006995 0.002991 0.002033
v -0.006995 0.002991 0.002033
v 0.000000 0.006828 0.012975
v -0.001332 0.006699 0.012975
v 0.000000 0.000000 0.000000
v -0.003122 0.002187 0.000000
v -0.003122 0.002187 0.000000
v -0.003453 0.001610 0.000000
v -0.003453 0.001610 0.000000
v -0.003721 0.000824 0.000000
v -0.003721 0.000824 0.000000
v -0.003810 0.000000 0.000000
v -0.003810 0.000000 0.000000
v -0.003810 0.000000 0.000000
v 0.000000 0.003810 0.000000
v 0.000000 0.003810 0.000000
v 0.000000 0.003810 0.000000
v -0.000824 0.003721 0.000000
v -0.000824 0.003721 0.000000
v -0.006992 0.001572 0.002632
v -0.006995 0.000000 0.002632
v -0.006995 0.000000 0.002033
v -0.006992 0.001567 0.002033
v 0.000000 0.006995 0.002632
v -0.001572 0.006992 0.002632
v -0.001567 0.006992 0.002034
v 0.000000 0.006995 0.002033
v -0.002187 0.003122 0.000000
v -0.002187 0.003122 0.000000
v -0.001610 0.003453 0.000000
v -0.001610 0.003453 0.000000
v -0.002695 0.002695 0.000000
v -0.002695 0.002695 0.000000
v -0.002546 0.003810 0.016058
v -0.003810 0.002546 0.016058
v -0.004234 0.001754 0.016058
v -0.004495 0.000895 0.016058
v -0.004583 0.000000 0.016058
v -0.001754 0.004234 0.016058
v -0.000895 0.004495 0.016058
v 0.000000 0.004583 0.016058
v -0.003456 0.003456 0.016794
v -0.002715 0.004065 0.016794
v -0.004065 0.002715 0.016794
v -0.004518 0.001871 0.016794
v -0.004796 0.000953 0.016794
v -0.004889 0.000000 0.016794
v -0.001871 0.004518 0.016794
v -0.000953 0.004796 0.016794
v 0.000000 0.004889 0.016794
v -0.003704 0.003704 0.017319
v -0.002910 0.004356 0.017319
v -0.004356 0.002910 0.017319
v -0.004839 0.002005 0.017319
v -0.005137 0.001021 0.017319
v -0.005238 0.000000 0.017319
v -0.002005 0.004839 0.017319
v -0.001021 0.005137 0.017319
v 0.000000 0.005238 0.017319
v -0.003345 0.003345 0.019602
v -0.002627 0.003931 0.019602
v -0.003931 0.002627 0.019602
v -0.004368 0.001810 0.019602
v -0.004639 0.000923 0.019602
v -0.004730 0.000000 0.019602
v -0.001810 0.004368 0.019602
v -0.000923 0.004639 0.019602
v 0.000000 0.004730 0.019602
v -0.005170 0.000000 0.018080
v -0.004998 0.000000 0.018841
v -0.004902 0.000976 0.018841
v -0.005071 0.001009 0.018080
v -0.001979 0.004778 0.018080
v -0.001911 0.004616 0.018841
v -0.000976 0.004902 0.018841
v -0.001009 0.005071 0.018080
v -0.004616 0.001911 0.018841
v -0.004778 0.001979 0.018080
v -0.004300 0.002872 0.018080
v -0.004156 0.002776 0.018841
v -0.003534 0.003534 0.018841
v -0.003655 0.003655 0.018080
v -0.002872 0.004300 0.018080
v -0.002776 0.004156 0.018841
v 0.000000 0.004998 0.018841
v 0.000000 0.005170 0.018080
v -0.003195 0.003195 0.019672
v -0.003195 0.003195 0.019672
v -0.002510 0.003757 0.019672
v -0.002510 0.003757 0.019672
v -0.003757 0.002510 0.019672
v -0.003757 0.002510 0.019672
v -0.004174 0.001729 0.019672
v -0.004174 0.001729 0.019672
v -0.004432 0.000882 0.019672
v -0.004432 0.000882 0.019672
v -0.004518 0.000000 0.019672
v -0.004518 0.000000 0.019672
v -0.001729 0.004174 0.019672
v -0.001729 0.004174 0.019672
v -0.000882 0.004432 0.019672
v -0.000882 0.004432 0.019672
v 0.000000 0.004518 0.019672
v 0.000000 0.004518 0.019672
v -0.002584 0.002584 0.026215
v -0.002030 0.003036 0.026215
v -0.003036 0.002030 0.026215
v -0.003375 0.001398 0.026215
v -0.003582 0.000713 0.026215
v -0.003653 0.000000 0.026215
v -0.001398 0.003375 0.026215
v -0.000713 0.003582 0.026215
v 0.000000 0.003653 0.026215
v -0.001663 0.004017 0.021222
v -0.000849 0.004265 0.021222
v -0.004265 0.000849 0.021222
v -0.004017 0.001663 0.021222
v -0.003615 0.002417 0.021222
v -0.003077 0.003077 0.021222
v -0.002417 0.003615 0.021222
v 0.000000 0.004348 0.021222
v -0.004348 0.000000 0.021222
v -0.002705 0.002705 0.026300
v -0.002126 0.003183 0.026300
v -0.003183 0.002126 0.026300
v -0.003537 0.001464 0.026300
v -0.003754 0.000746 0.026300
v -0.003827 0.000000 0.026300
v -0.001464 0.003537 0.026300
v -0.000746 0.003754 0.026300
v 0.000000 0.003827 0.026300
v -0.002768 0.002768 0.026412
v -0.002174 0.003256 0.026412
v -0.003256 0.002174 0.026412
v -0.003618 0.001499 0.026412
v -0.003840 0.000763 0.026412
v -0.003916 0.000000 0.026412
v -0.001499 0.003618 0.026412
v -0.000763 0.003840 0.026412
v 0.000000 0.003916 0.026412
v -0.002670 0.002670 0.026550
v -0.002098 0.003140 0.026550
v -0.003140 0.002098 0.026550
v -0.003489 0.001446 0.026550
v -0.003704 0.000736 0.026550
v -0.003777 0.000000 0.026550
v -0.001446 0.003489 0.026550
v -0.000736 0.003704 0.026550
v 0.000000 0.003777 0.026550
v -0.002513 0.002513 0.026598
v -0.002513 0.002513 0.026598
v -0.001974 0.002955 0.026598
v -0.001974 0.002955 0.026598
v -0.002955 0.001974 0.026598
v -0.002955 0.001974 0.026598
v -0.003284 0.001360 0.026598
v -0.003284 0.001360 0.026598
v -0.003486 0.000693 0.026598
v -0.003486 0.000693 0.026598
v -0.003554 0.000000 0.026598
v -0.003554 0.000000 0.026598
v -0.001360 0.003284 0.026598
v -0.001360 0.003284 0.026598
v -0.000693 0.003486 0.026598
v -0.000693 0.003486 0.026598
v 0.000000 0.003554 0.026598
v 0.000000 0.003554 0.026598
v -0.001272 0.001272 0.026598
v -0.001272 0.001272 0.026598
v -0.000688 0.001661 0.026598
v -0.000688 0.001661 0.026598
v -0.000698 0.001668 0.042980
v -0.000698 0.001668 0.042980
v -0.001661 0.000688 0.026598
v -0.001661 0.000688 0.026598
v -0.001274 0.001282 0.042980
v -0.001274 0.001282 0.042980
v -0.001797 0.000000 0.026598
v -0.001797 0.000000 0.026598
v -0.001663 0.000705 0.042981
v -0.001663 0.000705 0.042981
v 0.000000 0.001797 0.026598
v 0.000000 0.001797 0.026598
v -0.001792 0.000000 0.042980
v -0.001792 0.000000 0.042980
v -0.001792 0.000000 0.042980
v -0.001792 0.000000 0.042980
v 0.000000 0.001790 0.042980
v 0.000000 0.001790 0.042980
v 0.000000 0.001790 0.042980
v 0.000000 0.001790 0.042980
v -0.000943 0.001540 0.044156
v -0.000943 0.001540 0.044156
v -0.001272 0.001272 0.044156
v -0.001537 0.000948 0.044156
v -0.001537 0.000948 0.044156
v -0.001024 0.000000 0.044156
v 0.000000 0.001062 0.044156
v -0.001598 0.000000 0.043273
v -0.001294 0.000000 0.043709
v -0.001572 0.000890 0.043725
v -0.001620 0.000799 0.043273
v -0.001272 0.001272 0.043720
v -0.001282 0.001274 0.043276
v -0.000774 0.001633 0.043274
v -0.000897 0.001567 0.043715
v 0.000000 0.001317 0.043712
v 0.000000 0.001605 0.043273
v -0.000415 0.001754 0.043272
v -0.000415 0.001754 0.043272
v -0.000736 0.001633 0.043711
v -0.000736 0.001633 0.043711
v -0.001749 0.000427 0.043279
v -0.001749 0.000427 0.043279
v -0.001631 0.000738 0.043722
v -0.001631 0.000738 0.043722
v 0.000000 0.000647 0.044981
v 0.000000 0.000647 0.044981
v 0.000000 0.000647 0.044981
v 0.000000 0.000647 0.044981
v -0.000319 0.000331 0.044992
v -0.000319 0.000331 0.044992
v -0.000650 0.000000 0.044984
v -0.000650 0.000000 0.044984
v -0.000650 0.000000 0.044984
v -0.000650 0.000000 0.044984
v -0.000817 0.000806 0.044586
v -0.000488 0.001107 0.044578
v -0.000488 0.001107 0.044578
v -0.001100 0.000488 0.044584
v -0.001100 0.000488 0.044584
v -0.000887 0.000000 0.044571
v 0.000000 0.000890 0.044563
v 0.000000 0.000000 0.045000
v 0.005005 0.000000 0.014477
v 0.005771 0.000000 0.013654
v 0.004909 0.000976 0.014477
v 0.005660 0.001125 0.013654
v 0.006699 0.001332 0.012975
v 0.005332 0.002209 0.013654
v 0.006310 0.002614 0.012975
v 0.004798 0.003205 0.013654
v 0.004080 0.004080 0.013654
v 0.005678 0.003795 0.012975
v 0.004164 0.002781 0.014477
v 0.003539 0.003539 0.014477
v 0.002781 0.004164 0.014477
v 0.003309 0.003309 0.015100
v 0.002599 0.003891 0.015100
v 0.003891 0.002599 0.015100
v 0.004323 0.001790 0.015100
v 0.004588 0.000913 0.015100
v 0.004626 0.001916 0.014477
v 0.004679 0.000000 0.015100
v 0.001790 0.004323 0.015100
v 0.000913 0.004588 0.015100
v 0.001125 0.005660 0.013654
v 0.003241 0.003241 0.016058
v 0.000976 0.004909 0.014477
v 0.001916 0.004626 0.014477
v 0.002209 0.005332 0.013654
v 0.002614 0.006310 0.012975
v 0.003205 0.004798 0.013654
v 0.003795 0.005678 0.012975
v 0.004828 0.004828 0.012975
v 0.003868 0.005789 0.012798
v 0.002664 0.006434 0.012798
v 0.003989 0.005867 0.012262
v 0.003989 0.005867 0.012262
v 0.004925 0.004925 0.012798
v 0.005036 0.004990 0.012262
v 0.005036 0.004990 0.012262
v 0.005789 0.003868 0.012798
v 0.006434 0.002664 0.012798
v 0.005900 0.003941 0.012262
v 0.005900 0.003941 0.012262
v 0.006542 0.002725 0.012262
v 0.006542 0.002725 0.012262
v 0.002788 0.006517 0.012262
v 0.002788 0.006517 0.012262
v 0.001390 0.006858 0.012262
v 0.001390 0.006858 0.012262
v 0.001358 0.006831 0.012798
v 0.006957 0.000000 0.012262
v 0.006957 0.000000 0.012262
v 0.006965 0.000000 0.012798
v 0.006831 0.001358 0.012798
v 0.006828 0.000000 0.012975
v 0.006858 0.001383 0.012262
v 0.006858 0.001383 0.012262
v 0.007000 0.001668 0.012195
v 0.007000 0.001668 0.012195
v 0.007000 0.000000 0.012219
v 0.007000 0.000000 0.012219
v 0.006995 0.000000 0.001306
v 0.006995 0.000000 0.001306
v 0.006995 0.000000 0.001306
v 0.006654 0.000000 0.001054
v 0.006654 0.000000 0.001054
v 0.006992 0.001562 0.001456
v 0.006992 0.001562 0.001456
v 0.005210 0.000000 0.000358
v 0.005210 0.000000 0.000358
v 0.005948 0.000000 0.000681
v 0.005948 0.000000 0.000681
v 0.005807 0.001287 0.000681
v 0.005392 0.002513 0.000681
v 0.006497 0.001441 0.001054
v 0.006029 0.002811 0.001054
v 0.005450 0.003817 0.001054
v 0.006494 0.003029 0.001458
v 0.005870 0.004111 0.001458
v 0.005069 0.005069 0.001458
v 0.004111 0.005870 0.001458
v 0.005380 0.005380 0.002033
v 0.006231 0.004363 0.002033
v 0.004363 0.006231 0.002033
v 0.005481 0.005481 0.002632
v 0.004475 0.006333 0.002632
v 0.003334 0.007000 0.002632
v 0.003334 0.007000 0.002632
v 0.004475 0.006333 0.012046
v 0.004475 0.006333 0.012046
v 0.005481 0.005481 0.012022
v 0.005481 0.005481 0.012022
v 0.003334 0.007000 0.012113
v 0.003334 0.007000 0.012113
v 0.003334 0.007000 0.012113
v 0.001668 0.007000 0.012195
v 0.001668 0.007000 0.012195
v 0.001562 0.006992 0.001456
v 0.001562 0.006992 0.001456
v 0.003029 0.006494 0.001458
v 0.001441 0.006497 0.001054
v 0.002811 0.006029 0.001054
v 0.001287 0.005807 0.000681
v 0.002513 0.005392 0.000681
v 0.001127 0.005086 0.000358
v 0.000895 0.004040 0.000038
v 0.001749 0.003749 0.000038
v 0.002374 0.003390 0.000038
v 0.002925 0.002925 0.000038
v 0.003390 0.002374 0.000038
v 0.003683 0.003683 0.000358
v 0.004267 0.002988 0.000358
v 0.002988 0.004267 0.000358
v 0.002202 0.004722 0.000358
v 0.003413 0.004874 0.000681
v 0.003817 0.005450 0.001054
v 0.004207 0.004207 0.000681
v 0.004705 0.004705 0.001054
v 0.004874 0.003413 0.000681
v 0.004722 0.002202 0.000358
v 0.005086 0.001127 0.000358
v 0.004040 0.000895 0.000038
v 0.003749 0.001749 0.000038
v 0.004138 0.000000 0.000038
v 0.004138 0.000000 0.000038
v 0.002993 0.006992 0.002034
v 0.002993 0.006992 0.002034
v 0.006333 0.004475 0.012046
v 0.006333 0.004475 0.012046
v 0.007000 0.003334 0.012113
v 0.007000 0.003334 0.012113
v 0.007000 0.003334 0.012113
v 0.006333 0.004475 0.002632
v 0.007000 0.003334 0.002632
v 0.007000 0.003334 0.002632
v 0.006995 0.002991 0.002033
v 0.006995 0.002991 0.002033
v 0.001332 0.006699 0.012975
v 0.003122 0.002187 0.000000
v 0.003122 0.002187 0.000000
v 0.003453 0.001610 0.000000
v 0.003453 0.001610 0.000000
v 0.003721 0.000824 0.000000
v 0.003721 0.000824 0.000000
v 0.003810 0.000000 0.000000
v 0.003810 0.000000 0.000000
v 0.003810 0.000000 0.000000
v 0.000824 0.003721 0.000000
v 0.000824 0.003721 0.000000
v 0.006992 0.001572 0.002632
v 0.006995 0.000000 0.002632
v 0.006995 0.000000 0.002033
v 0.006992 0.001567 0.002033
v 0.001572 0.006992 0.002632
v 0.001567 0.006992 0.002034
v 0.002187 0.003122 0.000000
v 0.002187 0.003122 0.000000
v 0.001610 0.003453 0.000000
v 0.001610 0.003453 0.000000
v 0.002695 0.002695 0.000000
v 0.002695 0.002695 0.000000
v 0.002546 0.003810 0.016058
v 0.003810 0.002546 0.016058
v 0.004234 0.001754 0.016058
v 0.004495 0.000895 0.016058
v 0.004583 0.000000 0.016058
v 0.001754 0.004234 0.016058
v 0.000895 0.004495 0.016058
v 0.003456 0.003456 0.016794
v 0.002715 0.004065 0.016794
v 0.004065 0.002715 0.016794
v 0.004518 0.001871 0.016794
v 0.004796 0.000953 0.016794
v 0.004889 0.000000 0.016794
v 0.001871 0.004518 0.016794
v 0.000953 0.004796 0.016794
v 0.003704 0.003704 0.017319
v 0.002910 0.004356 0.017319
v 0.004356 0.002910 0.017319
v 0.004839 0.002005 0.017319
v 0.005137 0.001021 0.017319
v 0.005238 0.000000 0.017319
v 0.002005 0.004839 0.017319
v 0.001021 0.005137 0.017319
v 0.003345 0.003345 0.019602
v 0.002627 0.003931 0.019602
v 0.003931 0.002627 0.019602
v 0.004368 0.001810 0.019602
v 0.004639 0.000923 0.019602
v 0.004730 0.000000 0.019602
v 0.001810 0.004368 0.019602
v 0.000923 0.004639 0.019602
v 0.005170 0.000000 0.018080
v 0.004998 0.000000 0.018841
v 0.004902 0.000976 0.018841
v 0.005071 0.001009 0.018080
v 0.001979 0.004778 0.018080
v 0.001911 0.004616 0.018841
v 0.000976 0.004902 0.018841
v 0.001009 0.005071 0.018080
v 0.004616 0.001911 0.018841
v 0.004778 0.001979 0.018080
v 0.004300 0.002872 0.018080
v 0.004156 0.002776 0.018841
v 0.003534 0.003534 0.018841
v 0.003655 0.003655 0.018080
v 0.002872 0.004300 0.018080
v 0.002776 0.004156 0.018841
v 0.003195 0.003195 0.019672
v 0.003195 0.003195 0.019672
v 0.002510 0.003757 0.019672
v 0.002510 0.003757 0.019672
v 0.003757 0.002510 0.019672
v 0.003757 0.002510 0.019672
v 0.004174 0.001729 0.019672
v 0.004174 0.001729 0.019672
v 0.004432 0.000882 0.019672
v 0.004432 0.000882 0.019672
v 0.004518 0.000000 0.019672
v 0.004518 0.000000 0.019672
v 0.001729 0.004174 0.019672
v 0.001729 0.004174 0.019672
v 0.000882 0.004432 0.019672
v 0.000882 0.004432 0.019672
v 0.002584 0.002584 0.026215
v 0.002030 0.003036 0.026215
v 0.003036 0.002030 0.026215
v 0.003375 0.001398 0.026215
v 0.003582 0.000713 0.026215
v 0.003653 0.000000 0.026215
v 0.001398 0.003375 0.026215
v 0.000713 0.003582 0.026215
v 0.001663 0.004017 0.021222
v 0.000849 0.004265 0.021222
v 0.004265 0.000849 0.021222
v 0.004017 0.001663 0.021222
v 0.003615 0.002417 0.021222
v 0.003077 0.003077 0.021222
v 0.002417 0.003615 0.021222
v 0.004348 0.000000 0.021222
v 0.002705 0.002705 0.026300
v 0.002126 0.003183 0.026300
v 0.003183 0.002126 0.026300
v 0.003537 0.001464 0.026300
v 0.003754 0.000746 0.026300
v 0.003827 0.000000 0.026300
v 0.001464 0.003537 0.026300
v 0.000746 0.003754 0.026300
v 0.002768 0.002768 0.026412
v 0.002174 0.003256 0.026412
v 0.003256 0.002174 0.026412
v 0.003618 0.001499 0.026412
v 0.003840 0.000763 0.026412
v 0.003916 0.000000 0.026412
v 0.001499 0.003618 0.026412
v 0.000763 0.003840 0.026412
v 0.002670 0.002670 0.026550
v 0.002098 0.003140 0.026550
v 0.003140 0.002098 0.026550
v 0.003489 0.001446 0.026550
v 0.003704 0.000736 0.026550
v 0.003777 0.000000 0.026550
v 0.001446 0.003489 0.026550
v 0.000736 0.003704 0.026550
v 0.002513 0.002513 0.026598
v 0.002513 0.002513 0.026598
v 0.001974 0.002955 0.026598
v 0.001974 0.002955 0.026598
v 0.002955 0.001974 0.026598
v 0.002955 0.001974 0.026598
v 0.003284 0.001360 0.026598
v 0.003284 0.001360 0.026598
v 0.003486 0.000693 0.026598
v 0.003486 0.000693 0.026598
v 0.003554 0.000000 0.026598
v 0.003554 0.000000 0.026598
v 0.001360 0.003284 0.026598
v 0.001360 0.003284 0.026598
v 0.000693 0.003486 0.026598
v 0.000693 0.003486 0.026598
v 0.001272 0.001272 0.026598
v 0.001272 0.001272 0.026598
v 0.000688 0.001661 0.026598
v 0.000688 0.001661 0.026598
v 0.000698 0.001668 0.042980
v 0.000698 0.001668 0.042980
v 0.001661 0.000688 0.026598
v 0.001661 0.000688 0.026598
v 0.001274 0.001282 0.042980
v 0.001274 0.001282 0.042980
v 0.001797 0.000000 0.026598
v 0.001797 0.000000 0.026598
v 0.001663 0.000705 0.042981
v 0.001663 0.000705 0.042981
v 0.001792 0.000000 0.042980
v 0.001792 0.000000 0.042980
v 0.001792 0.000000 0.042980
v 0.001792 0.000000 0.042980
v 0.000943 0.001540 0.044156
v 0.000943 0.001540 0.044156
v 0.001272 0.001272 0.044156
v 0.001537 0.000948 0.044156
v 0.001537 0.000948 0.044156
v 0.001024 0.000000 0.044156
v 0.001598 0.000000 0.043273
v 0.001294 0.000000 0.043709
v 0.001572 0.000890 0.043725
v 0.001620 0.000799 0.043273
v 0.001272 0.001272 0.043720
v 0.001282 0.001274 0.043276
v 0.000774 0.001633 0.043274
v 0.000897 0.001567 0.043715
v 0.000415 0.001754 0.043272
v 0.000415 0.001754 0.043272
v 0.000736 0.001633 0.043711
v 0.000736 0.001633 0.043711
v 0.001749 0.000427 0.043279
v 0.001749 0.000427 0.043279
v 0.001631 0.000738 0.043722
v 0.001631 0.000738 0.043722
v 0.000319 0.000331 0.044992
v 0.000319 0.000331 0.044992
v 0.000650 0.000000 0.044984
v 0.000650 0.000000 0.044984
v 0.000650 0.000000 0.044984
v 0.000650 0.000000 0.044984
v 0.000817 0.000806 0.044586
v 0.000488 0.001107 0.044578
v 0.000488 0.001107 0.044578
v 0.001100 0.000488 0.044584
v 0.001100 0.000488 0.044584
v 0.000887 0.000000 0.044571
v -0.004909 -0.000976 0.014477
v -0.005660 -0.001125 0.013654
v -0.006699 -0.001332 0.012975
v -0.005332 -0.002209 0.013654
v -0.006310 -0.002614 0.012975
v -0.004798 -0.003205 0.013654
v -0.004080 -0.004080 0.013654
v -0.005678 -0.003795 0.012975
v -0.004164 -0.002781 0.014477
v -0.003539 -0.003539 0.014477
v -0.002781 -0.004164 0.014477
v -0.003309 -0.003309 0.015100
v -0.002599 -0.003891 0.015100
v -0.003891 -0.002599 0.015100
v -0.004323 -0.001790 0.015100
v -0.004588 -0.000913 0.015100
v -0.004626 -0.001916 0.014477
v -0.001790 -0.004323 0.015100
v -0.000913 -0.004588 0.015100
v 0.000000 -0.004679 0.015100
v 0.000000 -0.004679 0.015100
v 0.000000 -0.005005 0.014477
v 0.000000 -0.005005 0.014477
v 0.000000 -0.005771 0.013654
v 0.000000 -0.005771 0.013654
v -0.001125 -0.005660 0.013654
v -0.003241 -0.003241 0.016058
v -0.000976 -0.004909 0.014477
v -0.001916 -0.004626 0.014477
v -0.002209 -0.005332 0.013654
v -0.002614 -0.006310 0.012975
v -0.003205 -0.004798 0.013654
v -0.003795 -0.005678 0.012975
v -0.004828 -0.004828 0.012975
v -0.003868 -0.005789 0.012798
v -0.002664 -0.006434 0.012798
v -0.003989 -0.005867 0.012262
v -0.003989 -0.005867 0.012262
v -0.004925 -0.004925 0.012798
v -0.005036 -0.004990 0.012262
v -0.005036 -0.004990 0.012262
v -0.005789 -0.003868 0.012798
v -0.006434 -0.002664 0.012798
v -0.005900 -0.003941 0.012262
v -0.005900 -0.003941 0.012262
v -0.006542 -0.002725 0.012262
v -0.006542 -0.002725 0.012262
v -0.002788 -0.006517 0.012262
v -0.002788 -0.006517 0.012262
v -0.001390 -0.006858 0.012262
v -0.001390 -0.006858 0.012262
v -0.001358 -0.006831 0.012798
v 0.000000 -0.006960 0.012262
v 0.000000 -0.006960 0.012262
v 0.000000 -0.006960 0.012262
v 0.000000 -0.006965 0.012798
v 0.000000 -0.006965 0.012798
v -0.006831 -0.001358 0.012798
v -0.006858 -0.001383 0.012262
v -0.006858 -0.001383 0.012262
v -0.007000 -0.001668 0.012195
v -0.007000 -0.001668 0.012195
v -0.006992 -0.001562 0.001456
v -0.006992 -0.001562 0.001456
v -0.005807 -0.001287 0.000681
v -0.005392 -0.002513 0.000681
v -0.006497 -0.001441 0.001054
v -0.006029 -0.002811 0.001054
v -0.005450 -0.003817 0.001054
v -0.006494 -0.003029 0.001458
v -0.005870 -0.004111 0.001458
v -0.005069 -0.005069 0.001458
v -0.004111 -0.005870 0.001458
v -0.005380 -0.005380 0.002033
v -0.006231 -0.004363 0.002033
v -0.004363 -0.006231 0.002033
v -0.005481 -0.005481 0.002632
v -0.004475 -0.006333 0.002632
v -0.003334 -0.007000 0.002632
v -0.003334 -0.007000 0.002632
v -0.004475 -0.006333 0.012046
v -0.004475 -0.006333 0.012046
v -0.005481 -0.005481 0.012022
v -0.005481 -0.005481 0.012022
v -0.003334 -0.007000 0.012113
v -0.003334 -0.007000 0.012113
v -0.003334 -0.007000 0.012113
v -0.001668 -0.007000 0.012195
v -0.001668 -0.007000 0.012195
v 0.000000 -0.007000 0.012219
v 0.000000 -0.007000 0.012219
v -0.001562 -0.006992 0.001456
v -0.001562 -0.006992 0.001456
v -0.003029 -0.006494 0.001458
v 0.000000 -0.006995 0.001306
v 0.000000 -0.006995 0.001306
v 0.000000 -0.006995 0.001306
v 0.000000 -0.006654 0.001054
v 0.000000 -0.006654 0.001054
v 0.000000 -0.005948 0.000681
v 0.000000 -0.005948 0.000681
v -0.001441 -0.006497 0.001054
v -0.002811 -0.006029 0.001054
v -0.001287 -0.005807 0.000681
v -0.002513 -0.005392 0.000681
v -0.001127 -0.005086 0.000358
v 0.000000 -0.005210 0.000358
v 0.000000 -0.005210 0.000358
v 0.000000 -0.004138 0.000038
v 0.000000 -0.004138 0.000038
v -0.000895 -0.004040 0.000038
v -0.001749 -0.003749 0.000038
v -0.002374 -0.003390 0.000038
v -0.002925 -0.002925 0.000038
v -0.003390 -0.002374 0.000038
v -0.003683 -0.003683 0.000358
v -0.004267 -0.002988 0.000358
v -0.002988 -0.004267 0.000358
v -0.002202 -0.004722 0.000358
v -0.003413 -0.004874 0.000681
v -0.003817 -0.005450 0.001054
v -0.004207 -0.004207 0.000681
v -0.004705 -0.004705 0.001054
v -0.004874 -0.003413 0.000681
v -0.004722 -0.002202 0.000358
v -0.005086 -0.001127 0.000358
v -0.004040 -0.000895 0.000038
v -0.003749 -0.001749 0.000038
v -0.002993 -0.006992 0.002034
v -0.002993 -0.006992 0.002034
v -0.006333 -0.004475 0.012046
v -0.006333 -0.004475 0.012046
v -0.007000 -0.003334 0.012113
v -0.007000 -0.003334 0.012113
v -0.007000 -0.003334 0.012113
v -0.006333 -0.004475 0.002632
v -0.007000 -0.003334 0.002632
v -0.007000 -0.003334 0.002632
v -0.006995 -0.002991 0.002033
v -0.006995 -0.002991 0.002033
v 0.000000 -0.006828 0.012975
v 0.000000 -0.006828 0.012975
v -0.001332 -0.006699 0.012975
v -0.003122 -0.002187 0.000000
v -0.003122 -0.002187 0.000000
v -0.003453 -0.001610 0.000000
v -0.003453 -0.001610 0.000000
v -0.003721 -0.000824 0.000000
v -0.003721 -0.000824 0.000000
v 0.000000 -0.003810 0.000000
v 0.000000 -0.003810 0.000000
v 0.000000 -0.003810 0.000000
v -0.000824 -0.003721 0.000000
v -0.000824 -0.003721 0.000000
v -0.006992 -0.001572 0.002632
v -0.006992 -0.001567 0.002033
v 0.000000 -0.006995 0.002632
v -0.001572 -0.006992 0.002632
v -0.001567 -0.006992 0.002034
v 0.000000 -0.006995 0.002033
v -0.002187 -0.003122 0.000000
v -0.002187 -0.003122 0.000000
v -0.001610 -0.003453 0.000000
v -0.001610 -0.003453 0.000000
v -0.002695 -0.002695 0.000000
v -0.002695 -0.002695 0.000000
v -0.002546 -0.003810 0.016058
v -0.003810 -0.002546 0.016058
v -0.004234 -0.001754 0.016058
v -0.004495 -0.000895 0.016058
v -0.001754 -0.004234 0.016058
v -0.000895 -0.004495 0.016058
v 0.000000 -0.004583 0.016058
v 0.000000 -0.004583 0.016058
v -0.003456 -0.003456 0.016794
v -0.002715 -0.004065 0.016794
v -0.004065 -0.002715 0.016794
v -0.004518 -0.001871 0.016794
v -0.004796 -0.000953 0.016794
v -0.001871 -0.004518 0.016794
v -0.000953 -0.004796 0.016794
v 0.000000 -0.004889 0.016794
v 0.000000 -0.004889 0.016794
v -0.003704 -0.003704 0.017319
v -0.002910 -0.004356 0.017319
v -0.004356 -0.002910 0.017319
v -0.004839 -0.002005 0.017319
v -0.005137 -0.001021 0.017319
v -0.002005 -0.004839 0.017319
v -0.001021 -0.005137 0.017319
v 0.000000 -0.005238 0.017319
v 0.000000 -0.005238 0.017319
v -0.003345 -0.003345 0.019602
v -0.002627 -0.003931 0.019602
v -0.003931 -0.002627 0.019602
v -0.004368 -0.001810 0.019602
v -0.004639 -0.000923 0.019602
v -0.001810 -0.004368 0.019602
v -0.000923 -0.004639 0.019602
v 0.000000 -0.004730 0.019602
v 0.000000 -0.004730 0.019602
v -0.004902 -0.000976 0.018841
v -0.005071 -0.001009 0.018080
v -0.001979 -0.004778 0.018080
v -0.001911 -0.004616 0.018841
v -0.000976 -0.004902 0.018841
v -0.001009 -0.005071 0.018080
v -0.004616 -0.001911 0.018841
v -0.004778 -0.001979 0.018080
v -0.004300 -0.002872 0.018080
v -0.004156 -0.002776 0.018841
v -0.003534 -0.003534 0.018841
v -0.003655 -0.003655 0.018080
v -0.002872 -0.004300 0.018080
v -0.002776 -0.004156 0.018841
v 0.000000 -0.004998 0.018841
v 0.000000 -0.004998 0.018841
v 0.000000 -0.005170 0.018080
v 0.000000 -0.005170 0.018080
v -0.003195 -0.003195 0.019672
v -0.003195 -0.003195 0.019672
v -0.002510 -0.003757 0.019672
v -0.002510 -0.003757 0.019672
v -0.003757 -0.002510 0.019672
v -0.003757 -0.002510 0.019672
v -0.004174 -0.001729 0.019672
v -0.004174 -0.001729 0.019672
v -0.004432 -0.000882 0.019672
v -0.004432 -0.000882 0.019672
v -0.001729 -0.004174 0.019672
v -0.001729 -0.004174 0.019672
v -0.000882 -0.004432 0.019672
v -0.000882 -0.004432 0.019672
v 0.000000 -0.004518 0.019672
v 0.000000 -0.004518 0.019672
v 0.000000 -0.004518 0.019672
v 0.000000 -0.004518 0.019672
v -0.002584 -0.002584 0.026215
v -0.002030 -0.003036 0.026215
v -0.003036 -0.002030 0.026215
v -0.003375 -0.001398 0.026215
v -0.003582 -0.000713 0.026215
v -0.001398 -0.003375 0.026215
v -0.000713 -0.003582 0.026215
v 0.000000 -0.003653 0.026215
v 0.000000 -0.003653 0.026215
v -0.001663 -0.004017 0.021222
v -0.000849 -0.004265 0.021222
v -0.004265 -0.000849 0.021222
v -0.004017 -0.001663 0.021222
v -0.003615 -0.002417 0.021222
v -0.003077 -0.003077 0.021222
v -0.002417 -0.003615 0.021222
v 0.000000 -0.004348 0.021222
v 0.000000 -0.004348 0.021222
v -0.002705 -0.002705 0.026300
v -0.002126 -0.003183 0.026300
v -0.003183 -0.002126 0.026300
v -0.003537 -0.001464 0.026300
v -0.003754 -0.000746 0.026300
v -0.001464 -0.003537 0.026300
v -0.000746 -0.003754 0.026300
v 0.000000 -0.003827 0.026300
v 0.000000 -0.003827 0.026300
v -0.002768 -0.002768 0.026412
v -0.002174 -0.003256 0.026412
v -0.003256 -0.002174 0.026412
v -0.003618 -0.001499 0.026412
v -0.003840 -0.000763 0.026412
v -0.001499 -0.003618 0.026412
v -0.000763 -0.003840 0.026412
v 0.000000 -0.003916 0.026412
v 0.000000 -0.003916 0.026412
v -0.002670 -0.002670 0.026550
v -0.002098 -0.003140 0.026550
v -0.003140 -0.002098 0.026550
v -0.003489 -0.001446 0.026550
v -0.003704 -0.000736 0.026550
v -0.001446 -0.003489 0.026550
v -0.000736 -0.003704 0.026550
v 0.000000 -0.003777 0.026550
v 0.000000 -0.003777 0.026550
v -0.002513 -0.002513 0.026598
v -0.002513 -0.002513 0.026598
v -0.001974 -0.002955 0.026598
v -0.001974 -0.002955 0.026598
v -0.002955 -0.001974 0.026598
v -0.002955 -0.001974 0.026598
v -0.003284 -0.001360 0.026598
v -0.003284 -0.001360 0.026598
v -0.003486 -0.000693 0.026598
v -0.003486 -0.000693 0.026598
v -0.001360 -0.003284 0.026598
v -0.001360 -0.003284 0.026598
v -0.000693 -0.003486 0.026598
v -0.000693 -0.003486 0.026598
v 0.000000 -0.003554 0.026598
v 0.000000 -0.003554 0.026598
v 0.000000 -0.003554 0.026598
v -0.001272 -0.001272 0.026598
v -0.001272 -0.001272 0.026598
v -0.000688 -0.001661 0.026598
v -0.000688 -0.001661 0.026598
v -0.000698 -0.001668 0.042980
v -0.000698 -0.001668 0.042980
v -0.001661 -0.000688 0.026598
v -0.001661 -0.000688 0.026598
v -0.001274 -0.001282 0.042980
v -0.001274 -0.001282 0.042980
v -0.001663 -0.000705 0.042981
v -0.001663 -0.000705 0.042981
v 0.000000 -0.001797 0.026598
v 0.000000 -0.001797 0.026598
v 0.000000 -0.001797 0.026598
v 0.000000 -0.001790 0.042980
v 0.000000 -0.001790 0.042980
v 0.000000 -0.001790 0.042980
v 0.000000 -0.001790 0.042980
v 0.000000 -0.001790 0.042980
v -0.000943 -0.001540 0.044156
v -0.000943 -0.001540 0.044156
v -0.001272 -0.001272 0.044156
v -0.001537 -0.000948 0.044156
v -0.001537 -0.000948 0.044156
v 0.000000 -0.001062 0.044156
v -0.001572 -0.000890 0.043725
v -0.001620 -0.000799 0.043273
v -0.001272 -0.001272 0.043720
v -0.001282 -0.001274 0.043276
v -0.000774 -0.001633 0.043274
v -0.000897 -0.001567 0.043715
v 0.000000 -0.001317 0.043712
v 0.000000 -0.001605 0.043273
v -0.000415 -0.001754 0.043272
v -0.000415 -0.001754 0.043272
v -0.000736 -0.001633 0.043711
v -0.000736 -0.001633 0.043711
v -0.001749 -0.000427 0.043279
v -0.001749 -0.000427 0.043279
v -0.001631 -0.000738 0.043722
v -0.001631 -0.000738 0.043722
v 0.000000 -0.000647 0.044981
v 0.000000 -0.000647 0.044981
v 0.000000 -0.000647 0.044981
v 0.000000 -0.000647 0.044981
v -0.000319 -0.000331 0.044992
v -0.000319 -0.000331 0.044992
v -0.000817 -0.000806 0.044586
v -0.000488 -0.001107 0.044578
v -0.000488 -0.001107 0.044578
v -0.001100 -0.000488 0.044584
v -0.001100 -0.000488 0.044584
v 0.000000 -0.000890 0.044563
v 0.004909 -0.000976 0.014477
v 0.005660 -0.001125 0.013654
v 0.006699 -0.001332 0.012975
v 0.005332 -0.002209 0.013654
v 0.006310 -0.002614 0.012975
v 0.004798 -0.003205 0.013654
v 0.004080 -0.004080 0.013654
v 0.005678 -0.003795 0.012975
v 0.004164 -0.002781 0.014477
v 0.003539 -0.003539 0.014477
v 0.002781 -0.004164 0.014477
v 0.003309 -0.003309 0.015100
v 0.002599 -0.003891 0.015100
v 0.003891 -0.002599 0.015100
v 0.004323 -0.001790 0.015100
v 0.004588 -0.000913 0.015100
v 0.004626 -0.001916 0.014477
v 0.001790 -0.004323 0.015100
v 0.000913 -0.004588 0.015100
v 0.001125 -0.005660 0.013654
v 0.003241 -0.003241 0.016058
v 0.000976 -0.004909 0.014477
v 0.001916 -0.004626 0.014477
v 0.002209 -0.005332 0.013654
v 0.002614 -0.006310 0.012975
v 0.003205 -0.004798 0.013654
v 0.003795 -0.005678 0.012975
v 0.004828 -0.004828 0.012975
v 0.003868 -0.005789 0.012798
v 0.002664 -0.006434 0.012798
v 0.003989 -0.005867 0.012262
v 0.003989 -0.005867 0.012262
v 0.004925 -0.004925 0.012798
v 0.005036 -0.004990 0.012262
v 0.005036 -0.004990 0.012262
v 0.005789 -0.003868 0.012798
v 0.006434 -0.002664 0.012798
v 0.005900 -0.003941 0.012262
v 0.005900 -0.003941 0.012262
v 0.006542 -0.002725 0.012262
v 0.006542 -0.002725 0.012262
v 0.002788 -0.006517 0.012262
v 0.002788 -0.006517 0.012262
v 0.001390 -0.006858 0.012262
v 0.001390 -0.006858 0.012262
v 0.001358 -0.006831 0.012798
v 0.006831 -0.001358 0.012798
v 0.006858 -0.001383 0.012262
v 0.006858 -0.001383 0.012262
v 0.007000 -0.001668 0.012195
v 0.007000 -0.001668 0.012195
v 0.006992 -0.001562 0.001456
v 0.006992 -0.001562 0.001456
v 0.005807 -0.001287 0.000681
v 0.005392 -0.002513 0.000681
v 0.006497 -0.001441 0.001054
v 0.006029 -0.002811 0.001054
v 0.005450 -0.003817 0.001054
v 0.006494 -0.003029 0.001458
v 0.005870 -0.004111 0.001458
v 0.005069 -0.005069 0.001458
v 0.004111 -0.005870 0.001458
v 0.005380 -0.005380 0.002033
v 0.006231 -0.004363 0.002033
v 0.004363 -0.006231 0.002033
v 0.005481 -0.005481 0.002632
v 0.004475 -0.006333 0.002632
v 0.003334 -0.007000 0.002632
v 0.003334 -0.007000 0.002632
v 0.004475 -0.006333 0.012046
v 0.004475 -0.006333 0.012046
v 0.005481 -0.005481 0.012022
v 0.005481 -0.005481 0.012022
v 0.003334 -0.007000 0.012113
v 0.003334 -0.007000 0.012113
v 0.003334 -0.007000 0.012113
v 0.001668 -0.007000 0.012195
v 0.001668 -0.007000 0.012195
v 0.001562 -0.006992 0.001456
v 0.001562 -0.006992 0.001456
v 0.003029 -0.006494 0.001458
v 0.001441 -0.006497 0.001054
v 0.002811 -0.006029 0.001054
v 0.001287 -0.005807 0.000681
v 0.002513 -0.005392 0.000681
v 0.001127 -0.005086 0.000358
v 0.000895 -0.004040 0.000038
v 0.001749 -0.003749 0.000038
v 0.002374 -0.003390 0.000038
v 0.002925 -0.002925 0.000038
v 0.003390 -0.002374 0.000038
v 0.003683 -0.003683 0.000358
v 0.004267 -0.002988 0.000358
v 0.002988 -0.004267 0.000358
v 0.002202 -0.004722 0.000358
v 0.003413 -0.004874 0.000681
v 0.003817 -0.005450 0.001054
v 0.004207 -0.004207 0.000681
v 0.004705 -0.004705 0.001054
v 0.004874 -0.003413 0.000681
v 0.004722 -0.002202 0.000358
v 0.005086 -0.001127 0.000358
v 0.004040 -0.000895 0.000038
v 0.003749 -0.001749 0.000038
v 0.002993 -0.006992 0.002034
v 0.002993 -0.006992 0.002034
v 0.006333 -0.004475 0.012046
v 0.006333 -0.004475 0.012046
v 0.007000 -0.003334 0.012113
v 0.007000 -0.003334 0.012113
v 0.007000 -0.003334 0.012113
v 0.006333 -0.004475 0.002632
v 0.007000 -0.003334 0.002632
v 0.007000 -0.003334 0.002632
v 0.006995 -0.002991 0.002033
v 0.006995 -0.002991 0.002033
v 0.001332 -0.006699 0.012975
v 0.003122 -0.002187 0.000000
v 0.003122 -0.002187 0.000000
v 0.003453 -0.001610 0.000000
v 0.003453 -0.001610 0.000000
v 0.003721 -0.000824 0.000000
v 0.003721 -0.000824 0.000000
v 0.000824 -0.003721 0.000000
v 0.000824 -0.003721 0.000000
v 0.006992 -0.001572 0.002632
v 0.006992 -0.001567 0.002033
v 0.001572 -0.006992 0.002632
v 0.001567 -0.006992 0.002034
v 0.002187 -0.003122 0.000000
v 0.002187 -0.003122 0.000000
v 0.001610 -0.003453 0.000000
v 0.001610 -0.003453 0.000000
v 0.002695 -0.002695 0.000000
v 0.002695 -0.002695 0.000000
v 0.002546 -0.003810 0.016058
v 0.003810 -0.002546 0.016058
v 0.004234 -0.001754 0.016058
v 0.004495 -0.000895 0.016058
v 0.001754 -0.004234 0.016058
v 0.000895 -0.004495 0.016058
v 0.003456 -0.003456 0.016794
v 0.002715 -0.004065 0.016794
v 0.004065 -0.002715 0.016794
v 0.004518 -0.001871 0.016794
v 0.004796 -0.000953 0.016794
v 0.001871 -0.004518 0.016794
v 0.000953 -0.004796 0.016794
v 0.003704 -0.003704 0.017319
v 0.002910 -0.004356 0.017319
v 0.004356 -0.002910 0.017319
v 0.004839 -0.002005 0.017319
v 0.005137 -0.001021 0.017319
v 0.002005 -0.004839 0.017319
v 0.001021 -0.005137 0.017319
v 0.003345 -0.003345 0.019602
v 0.002627 -0.003931 0.019602
v 0.003931 -0.002627 0.019602
v 0.004368 -0.001810 0.019602
v 0.004639 -0.000923 0.019602
v 0.001810 -0.004368 0.019602
v 0.000923 -0.004639 0.019602
v 0.004902 -0.000976 0.018841
v 0.005071 -0.001009 0.018080
v 0.001979 -0.004778 0.018080
v 0.001911 -0.004616 0.018841
v 0.000976 -0.004902 0.018841
v 0.001009 -0.005071 0.018080
v 0.004616 -0.001911 0.018841
v 0.004778 -0.001979 0.018080
v 0.004300 -0.002872 0.018080
v 0.004156 -0.002776 0.018841
v 0.003534 -0.003534 0.018841
v 0.003655 -0.003655 0.018080
v 0.002872 -0.004300 0.018080
v 0.002776 -0.004156 0.018841
v 0.003195 -0.003195 0.019672
v 0.003195 -0.003195 0.019672
v 0.002510 -0.003757 0.019672
v 0.002510 -0.003757 0.019672
v 0.003757 -0.002510 0.019672
v 0.003757 -0.002510 0.019672
v 0.004174 -0.001729 0.019672
v 0.004174 -0.001729 0.019672
v 0.004432 -0.000882 0.019672
v 0.004432 -0.000882 0.019672
v 0.001729 -0.004174 0.019672
v 0.001729 -0.004174 0.019672
v 0.000882 -0.004432 0.019672
v 0.000882 -0.004432 0.019672
v 0.002584 -0.002584 0.026215
v 0.002030 -0.003036 0.026215
v 0.003036 -0.002030 0.026215
v 0.003375 -0.001398 0.026215
v 0.003582 -0.000713 0.026215
v 0.001398 -0.003375 0.026215
v 0.000713 -0.003582 0.026215
v 0.001663 -0.004017 0.021222
v 0.000849 -0.004265 0.021222
v 0.004265 -0.000849 0.021222
v 0.004017 -0.001663 0.021222
v 0.003615 -0.002417 0.021222
v 0.003077 -0.003077 0.021222
v 0.002417 -0.003615 0.021222
v 0.002705 -0.002705 0.026300
v 0.002126 -0.003183 0.026300
v 0.003183 -0.002126 0.026300
v 0.003537 -0.001464 0.026300
v 0.003754 -0.000746 0.026300
v 0.001464 -0.003537 0.026300
v 0.000746 -0.003754 0.026300
v 0.002768 -0.002768 0.026412
v 0.002174 -0.003256 0.026412
v 0.003256 -0.002174 0.026412
v 0.003618 -0.001499 0.026412
v 0.003840 -0.000763 0.026412
v 0.001499 -0.003618 0.026412
v 0.000763 -0.003840 0.026412
v 0.002670 -0.002670 0.026550
v 0.002098 -0.003140 0.026550
v 0.003140 -0.002098 0.026550
v 0.003489 -0.001446 0.026550
v 0.003704 -0.000736 0.026550
v 0.001446 -0.003489 0.026550
v 0.000736 -0.003704 0.026550
v 0.002513 -0.002513 0.026598
v 0.002513 -0.002513 0.026598
v 0.001974 -0.002955 0.026598
v 0.001974 -0.002955 0.026598
v 0.002955 -0.001974 0.026598
v 0.002955 -0.001974 0.026598
v 0.003284 -0.001360 0.026598
v 0.003284 -0.001360 0.026598
v 0.003486 -0.000693 0.026598
v 0.003486 -0.000693 0.026598
v 0.001360 -0.003284 0.026598
v 0.001360 -0.003284 0.026598
v 0.000693 -0.003486 0.026598
v 0.000693 -0.003486 0.026598
v 0.001272 -0.001272 0.026598
v 0.001272 -0.001272 0.026598
v 0.000688 -0.001661 0.026598
v 0.000688 -0.001661 0.026598
v 0.000698 -0.001668 0.042980
v 0.000698 -0.001668 0.042980
v 0.001661 -0.000688 0.026598
v 0.001661 -0.000688 0.026598
v 0.001274 -0.001282 0.042980
v 0.001274 -0.001282 0.042980
v 0.001663 -0.000705 0.042981
v 0.001663 -0.000705 0.042981
v 0.000943 -0.001540 0.044156
v 0.000943 -0.001540 0.044156
v 0.001272 -0.001272 0.044156
v 0.001537 -0.000948 0.044156
v 0.001537 -0.000948 0.044156
v 0.001572 -0.000890 0.043725
v 0.001620 -0.000799 0.043273
v 0.001272 -0.001272 0.043720
v 0.001282 -0.001274 0.043276
v 0.000774 -0.001633 0.043274
v 0.000897 -0.001567 0.043715
v 0.000415 -0.001754 0.043272
v 0.000415 -0.001754 0.043272
v 0.000736 -0.001633 0.043711
v 0.000736 -0.001633 0.043711
v 0.001749 -0.000427 0.043279
v 0.001749 -0.000427 0.043279
v 0.001631 -0.000738 0.043722
v 0.001631 -0.000738 0.043722
v 0.000319 -0.000331 0.044992
v 0.000319 -0.000331 0.044992
v 0.000817 -0.000806 0.044586
v 0.000488 -0.001107 0.044578
v 0.000488 -0.001107 0.044578
v 0.001100 -0.000488 0.044584
v 0.001100 -0.000488 0.044584
f 19 4 3
f 9 11 12
f 6 5 4
f 5 2 4
f 10 6 8
f 13 9 12
f 34 8 9
f 8 19 11
f 24 26 28
f 12 16 14
f 15 12 14
f 11 17 16
f 17 3 18
f 23 28 22
f 26 29 28
f 29 32 13
f 28 21 22
f 21 13 15
f 30 33 32
f 159 30 26
f 32 34 9
f 35 34 33
f 36 33 31
f 49 35 36
f 38 39 35
f 41 42 39
f 34 42 10
f 42 47 43
f 42 7 10
f 51 36 52
f 54 52 55
f 138 88 136
f 153 89 90
f 60 61 5
f 60 58 59
f 43 63 60
f 7 60 5
f 46 64 62
f 48 104 101
f 66 62 64
f 178 157 75
f 82 70 74
f 74 83 82
f 121 120 119
f 80 73 82
f 142 77 141
f 83 80 82
f 84 85 86
f 87 84 86
f 84 81 83
f 91 87 89
f 109 136 88
f 109 147 108
f 93 89 92
f 91 95 147
f 95 97 102
f 93 99 97
f 40 96 98
f 40 148 44
f 100 180 94
f 50 105 104
f 150 44 148
f 109 91 147
f 116 117 114
f 119 118 117
f 119 123 121
f 125 121 123
f 126 134 121
f 131 130 132
f 126 172 174
f 174 127 126
f 186 128 127
f 188 128 184
f 188 130 129
f 120 133 135
f 131 128 129
f 141 81 140
f 139 140 81
f 135 131 137
f 118 135 136
f 138 135 137
f 138 139 84
f 137 132 139
f 133 127 128
f 132 143 140
f 141 143 142
f 142 164 166
f 166 145 142
f 130 164 143
f 152 175 65
f 107 146 181
f 154 90 156
f 65 176 68
f 118 108 117
f 85 74 156
f 99 153 149
f 37 101 96
f 149 154 151
f 90 85 156
f 158 52 159
f 25 159 26
f 52 31 159
f 3 20 18
f 160 161 187
f 160 187 183
f 160 173 170
f 160 185 173
f 160 163 161
f 160 165 163
f 160 167 165
f 178 176 175
f 157 175 155
f 179 181 180
f 177 75 71
f 103 179 180
f 146 180 181
f 4 1 3
f 160 183 185
f 77 80 141
f 86 89 87
f 182 107 181
f 117 111 114
f 22 194 195
f 16 191 190
f 20 192 18
f 14 190 27
f 21 189 194
f 22 196 23
f 18 191 17
f 15 27 189
f 194 198 203
f 196 204 205
f 189 197 198
f 191 199 190
f 193 201 192
f 194 204 195
f 191 201 200
f 190 197 27
f 200 208 199
f 198 206 207
f 202 210 201
f 203 213 204
f 200 210 209
f 199 206 197
f 203 207 212
f 205 213 214
f 226 220 219
f 230 221 222
f 226 218 232
f 236 217 215
f 239 221 229
f 230 223 240
f 235 218 217
f 236 216 239
f 206 238 207
f 237 239 238
f 209 234 208
f 234 232 235
f 213 241 214
f 231 240 241
f 207 228 212
f 238 229 228
f 206 234 237
f 237 235 236
f 210 233 209
f 227 232 233
f 213 228 231
f 231 229 230
f 210 224 227
f 227 225 226
f 215 246 242
f 216 254 221
f 222 258 223
f 217 248 246
f 215 244 216
f 219 252 250
f 222 254 256
f 219 248 218
f 269 267 270
f 271 263 272
f 273 260 274
f 275 266 269
f 270 268 276
f 272 262 273
f 274 261 275
f 277 264 271
f 251 277 271
f 243 275 245
f 247 272 273
f 257 276 259
f 245 269 255
f 243 273 274
f 251 272 249
f 257 269 270
f 266 279 284
f 268 285 286
f 263 280 262
f 261 278 279
f 265 282 264
f 266 285 267
f 263 282 281
f 262 278 260
f 283 291 282
f 284 294 285
f 281 291 290
f 280 287 278
f 279 293 284
f 286 294 295
f 281 289 280
f 278 288 279
f 291 299 290
f 287 298 296
f 288 302 293
f 294 304 295
f 289 299 298
f 287 297 288
f 291 301 300
f 294 302 303
f 297 318 302
f 303 322 304
f 298 312 310
f 296 308 297
f 300 316 314
f 303 318 320
f 300 312 299
f 296 310 306
f 309 329 323
f 307 323 325
f 313 333 329
f 319 325 337
f 311 313 329
f 305 309 323
f 317 307 325
f 321 319 337
f 326 345 338
f 330 332 324
f 324 328 326
f 330 342 336
f 356 371 350
f 358 350 349
f 366 353 362
f 358 348 361
f 331 360 327
f 359 361 360
f 327 365 344
f 364 362 363
f 331 357 359
f 359 356 358
f 335 369 357
f 357 371 356
f 343 364 363
f 348 367 361
f 367 360 361
f 382 375 384
f 368 355 370
f 370 352 351
f 368 339 354
f 382 379 377
f 350 382 349
f 348 382 384
f 386 352 387
f 381 386 387
f 353 383 388
f 383 373 388
f 372 376 389
f 376 378 389
f 408 393 395
f 400 398 401
f 395 394 396
f 391 394 393
f 395 399 397
f 402 398 418
f 397 420 398
f 408 397 400
f 24 412 25
f 405 401 403
f 404 401 402
f 406 400 405
f 406 392 408
f 23 414 24
f 415 412 414
f 415 418 416
f 410 414 411
f 410 402 415
f 416 419 417
f 416 526 412
f 418 420 419
f 420 421 419
f 419 422 417
f 421 435 422
f 425 424 421
f 428 427 425
f 420 428 425
f 428 433 431
f 396 428 399
f 422 437 438
f 438 54 55
f 469 506 504
f 521 470 473
f 443 442 394
f 442 440 445
f 429 445 433
f 396 442 429
f 446 432 444
f 484 434 481
f 448 444 439
f 541 456 525
f 463 450 453
f 464 455 463
f 493 492 502
f 461 453 459
f 510 457 512
f 464 461 462
f 466 465 467
f 465 468 467
f 462 465 464
f 468 472 470
f 504 488 469
f 488 487 514
f 470 474 473
f 475 472 514
f 478 475 482
f 480 474 478
f 477 426 479
f 516 426 430
f 542 483 476
f 105 436 484
f 518 430 432
f 488 472 469
f 489 115 113
f 491 490 492
f 122 491 493
f 124 493 494
f 494 502 495
f 498 499 500
f 494 171 124
f 495 537 494
f 496 547 495
f 496 548 545
f 548 498 528
f 501 492 503
f 499 496 501
f 462 509 508
f 507 508 500
f 499 503 505
f 503 490 504
f 506 503 504
f 507 506 465
f 500 505 507
f 501 495 502
f 500 511 498
f 511 509 510
f 510 530 511
f 512 532 510
f 530 498 511
f 538 520 447
f 486 543 515
f 522 471 521
f 539 447 449
f 487 490 489
f 466 524 455
f 480 521 473
f 481 423 477
f 517 522 521
f 466 471 524
f 158 438 55
f 25 526 158
f 417 438 526
f 409 392 407
f 160 549 527
f 160 544 549
f 160 170 536
f 160 536 546
f 160 527 529
f 160 529 531
f 160 531 533
f 539 541 538
f 538 525 523
f 179 543 182
f 540 456 541
f 485 179 106
f 515 542 476
f 390 393 392
f 160 546 544
f 457 461 459
f 467 470 471
f 182 486 112
f 489 110 487
f 411 555 410
f 405 552 406
f 553 409 407
f 403 551 405
f 410 550 404
f 196 411 23
f 552 407 406
f 404 413 403
f 555 558 550
f 196 564 556
f 550 557 413
f 559 552 551
f 561 554 553
f 564 555 556
f 552 561 553
f 557 551 413
f 567 560 559
f 558 565 557
f 569 562 561
f 572 563 564
f 560 569 561
f 565 559 557
f 563 566 558
f 205 572 564
f 583 578 582
f 587 579 586
f 576 583 589
f 593 575 592
f 579 596 586
f 223 587 240
f 592 576 589
f 574 593 596
f 595 565 566
f 596 594 595
f 591 568 567
f 591 589 590
f 241 572 214
f 240 588 241
f 585 566 571
f 586 595 585
f 565 591 567
f 594 592 591
f 590 569 568
f 589 584 590
f 572 585 571
f 588 586 585
f 569 581 570
f 584 582 581
f 573 601 575
f 609 574 579
f 258 580 223
f 575 603 576
f 599 573 574
f 577 607 578
f 580 609 579
f 603 577 576
f 620 621 622
f 616 623 624
f 613 625 626
f 619 627 621
f 268 622 276
f 615 624 625
f 614 626 627
f 617 628 623
f 606 628 608
f 627 598 600
f 602 624 604
f 276 612 259
f 621 600 610
f 598 625 602
f 624 606 604
f 612 621 610
f 619 630 614
f 268 636 620
f 631 616 615
f 614 629 613
f 633 618 617
f 636 619 620
f 616 633 617
f 629 615 613
f 641 634 633
f 644 635 636
f 632 641 633
f 637 631 629
f 643 630 635
f 286 644 636
f 639 632 631
f 638 629 630
f 648 641 640
f 637 647 639
f 651 638 643
f 304 644 295
f 639 648 640
f 646 637 638
f 641 650 642
f 644 651 643
f 666 646 651
f 322 652 304
f 647 660 648
f 656 645 646
f 649 664 650
f 652 666 651
f 660 649 648
f 645 658 647
f 657 675 659
f 655 669 653
f 661 679 663
f 667 671 665
f 659 675 661
f 653 669 657
f 665 671 655
f 321 337 667
f 345 672 338
f 677 676 670
f 673 670 672
f 676 684 680
f 695 690 708
f 697 690 695
f 353 704 362
f 687 697 700
f 699 678 674
f 700 698 699
f 701 674 346
f 362 702 363
f 678 696 682
f 698 695 696
f 682 706 686
f 696 708 706
f 343 363 702
f 687 700 703
f 703 699 701
f 374 715 716
f 694 705 707
f 692 707 691
f 705 693 683
f 715 712 718
f 715 690 689
f 687 715 689
f 692 719 720
f 714 720 719
f 353 717 688
f 717 388 373
f 372 389 709
f 709 389 711
f 737 722 724
f 729 727 730
f 724 723 725
f 2 723 722
f 724 728 726
f 731 727 752
f 726 754 727
f 737 726 729
f 743 746 745
f 734 730 732
f 733 730 731
f 735 729 734
f 735 721 737
f 741 748 743
f 749 746 748
f 749 752 750
f 738 748 739
f 738 731 749
f 750 753 751
f 750 863 746
f 752 754 753
f 754 755 753
f 753 756 751
f 755 769 756
f 759 758 755
f 762 761 759
f 754 762 759
f 762 767 765
f 725 762 728
f 756 771 772
f 772 775 777
f 793 843 841
f 856 794 797
f 61 778 723
f 778 58 780
f 763 780 767
f 725 778 763
f 781 766 779
f 809 768 806
f 67 779 57
f 876 784 860
f 787 69 72
f 788 783 787
f 826 825 839
f 785 72 78
f 847 76 144
f 788 785 786
f 790 789 791
f 789 792 791
f 786 789 788
f 792 796 794
f 841 814 793
f 814 813 850
f 794 798 797
f 800 796 850
f 802 800 807
f 804 798 802
f 801 760 803
f 851 760 764
f 878 805 799
f 810 770 809
f 853 764 766
f 814 796 793
f 822 820 818
f 824 823 825
f 827 824 826
f 829 826 831
f 831 839 832
f 835 836 837
f 831 871 829
f 832 874 831
f 833 884 832
f 833 886 882
f 886 835 865
f 838 825 840
f 836 833 838
f 786 846 845
f 844 845 837
f 836 840 842
f 840 823 841
f 843 840 841
f 844 843 789
f 837 842 844
f 838 832 839
f 837 848 835
f 848 846 847
f 847 867 848
f 144 869 847
f 867 835 848
f 875 855 782
f 812 879 849
f 857 795 856
f 176 782 68
f 813 823 822
f 790 859 783
f 804 856 797
f 806 757 801
f 852 857 856
f 790 795 859
f 862 772 777
f 745 863 862
f 751 772 863
f 20 721 736
f 160 885 864
f 160 881 885
f 160 870 873
f 160 873 883
f 160 864 866
f 160 866 868
f 160 868 167
f 176 876 875
f 875 860 858
f 877 879 880
f 177 784 876
f 808 877 811
f 849 878 799
f 1 722 721
f 160 883 881
f 76 785 78
f 791 794 795
f 880 812 817
f 822 815 813
f 739 891 738
f 734 889 735
f 890 20 736
f 732 888 734
f 738 887 733
f 894 739 741
f 889 736 735
f 733 747 732
f 891 896 887
f 894 901 892
f 887 895 747
f 897 889 888
f 899 193 890
f 901 891 892
f 889 899 890
f 895 888 747
f 906 898 897
f 896 904 895
f 908 202 899
f 910 900 901
f 898 908 899
f 904 897 895
f 900 905 896
f 903 910 901
f 922 220 225
f 926 918 925
f 916 922 928
f 932 915 931
f 918 935 925
f 921 926 937
f 931 916 928
f 914 932 935
f 934 904 905
f 935 933 934
f 930 907 906
f 930 928 929
f 939 910 912
f 937 927 939
f 924 905 909
f 925 934 924
f 904 930 906
f 933 931 930
f 929 908 907
f 928 923 929
f 910 924 909
f 927 925 924
f 908 224 211
f 923 225 224
f 913 944 915
f 950 914 918
f 954 919 921
f 915 946 916
f 942 913 914
f 917 252 220
f 919 950 918
f 946 917 916
f 964 967 968
f 961 969 970
f 958 971 972
f 963 973 967
f 966 968 975
f 960 970 971
f 959 972 973
f 962 277 969
f 949 277 253
f 973 941 943
f 945 970 947
f 975 953 957
f 967 943 951
f 941 971 945
f 970 949 947
f 953 967 951
f 963 977 959
f 966 982 964
f 978 961 960
f 959 976 958
f 980 265 962
f 982 963 964
f 961 980 962
f 976 960 958
f 989 283 980
f 991 981 982
f 979 989 980
f 985 978 976
f 990 977 981
f 984 991 982
f 987 979 978
f 986 976 977
f 997 989 988
f 985 996 987
f 999 986 990
f 1002 991 993
f 987 997 988
f 995 985 986
f 989 301 292
f 991 999 990
f 1014 995 999
f 1018 1000 1002
f 996 1010 997
f 1006 994 995
f 998 316 301
f 1000 1014 999
f 1010 998 997
f 994 1008 996
f 1007 1026 1009
f 1005 1020 1003
f 1011 333 315
f 1015 1022 1013
f 1009 1026 1011
f 1003 1020 1007
f 1013 1022 1005
f 1017 1032 1015
f 1037 1023 1033
f 1029 1027 1021
f 1025 1021 1023
f 1027 342 334
f 1046 1043 1061
f 1048 1043 1046
f 1045 1056 1052
f 1041 1048 1051
f 1050 1028 1024
f 1051 1049 1050
f 1055 1024 1036
f 1052 1054 1053
f 1028 1047 1030
f 1049 1046 1047
f 1030 1059 340
f 1047 1061 1059
f 1035 1053 1054
f 1041 1051 1057
f 1057 1050 1055
f 1065 1068 1070
f 355 1058 1060
f 352 1060 1044
f 1058 354 339
f 1068 380 1071
f 1068 1043 1042
f 1041 1068 1042
f 352 1072 387
f 381 387 1072
f 1045 1069 1040
f 1069 1073 1063
f 1062 389 1066
f 1066 389 378
f 1090 1075 1074
f 1080 1082 1083
f 1077 1076 1075
f 1076 391 1075
f 1081 1077 1079
f 1084 1080 1083
f 1101 1079 1080
f 1079 1090 1082
f 742 1093 1095
f 1083 1087 1085
f 1086 1083 1085
f 1082 1088 1087
f 1088 1074 1089
f 740 1095 1092
f 1093 1096 1095
f 1096 1099 1084
f 1095 1091 1092
f 1091 1084 1086
f 1097 1100 1099
f 1190 1097 1093
f 1099 1101 1080
f 1102 1101 1100
f 1103 1100 1098
f 1116 1102 1103
f 1105 1106 1102
f 1108 1109 1106
f 1101 1109 1081
f 1109 1114 1110
f 1109 1078 1081
f 1118 1103 1119
f 774 1119 776
f 1172 1135 1170
f 1185 1136 1137
f 1120 443 1076
f 1120 440 441
f 1110 1122 1120
f 1078 1120 1076
f 1113 1123 1121
f 1115 1150 1147
f 448 1121 1123
f 1200 1189 1126
f 1129 451 1125
f 1125 1130 1129
f 1159 1158 1157
f 1127 454 1129
f 1176 458 1175
f 1130 1127 1129
f 1131 1132 1133
f 1134 1131 1133
f 1131 1128 1130
f 1138 1134 1136
f 1154 1170 1135
f 1154 1178 1153
f 1140 1136 1139
f 1138 1141 1178
f 1141 1144 1148
f 1140 1146 1144
f 1107 1143 1145
f 1107 1180 1111
f 1149 1201 1142
f 1117 810 1150
f 1182 1111 1180
f 1154 1138 1178
f 821 1155 819
f 1157 1156 1155
f 1157 828 1159
f 830 1159 828
f 1160 1168 1159
f 1165 1164 1166
f 1160 872 1198
f 1198 1161 1160
f 1206 1162 1161
f 1207 1162 1204
f 1207 1164 1163
f 1158 1167 1169
f 1165 1162 1163
f 1175 1128 1174
f 1173 1174 1128
f 1169 1165 1171
f 1156 1169 1170
f 1172 1169 1171
f 1172 1173 1131
f 1171 1166 1173
f 1167 1161 1162
f 1166 1177 1174
f 1175 1177 1176
f 1176 1194 1196
f 1196 513 1176
f 1164 1194 1177
f 1184 1199 1124
f 1152 1179 1202
f 1186 1137 1188
f 1124 539 449
f 1156 1153 1155
f 1132 1125 1188
f 1146 1185 1181
f 1104 1147 1143
f 1181 1186 1183
f 1137 1132 1188
f 861 1119 1190
f 744 1190 1093
f 1119 1098 1190
f 1074 409 1089
f 160 1191 1208
f 160 1208 1203
f 160 1197 870
f 160 1205 1197
f 160 1193 1191
f 160 1195 1193
f 160 533 1195
f 1200 539 1199
f 1189 1199 1187
f 877 1202 1201
f 540 1126 452
f 1151 877 1201
f 1179 1201 1202
f 1075 390 1074
f 160 1203 1205
f 458 1127 1175
f 1133 1136 1134
f 880 1152 1202
f 1155 816 819
f 1092 1213 1214
f 1087 1211 1210
f 409 1212 1089
f 1085 1210 1094
f 1091 1209 1213
f 1092 893 740
f 1089 1211 1088
f 1086 1094 1209
f 1213 1216 1220
f 893 1221 902
f 1209 1215 1216
f 1211 1217 1210
f 554 1219 1212
f 1213 1221 1214
f 1211 1219 1218
f 1210 1215 1094
f 1218 1224 1217
f 1216 1222 1223
f 562 1226 1219
f 1220 1228 1221
f 1218 1226 1225
f 1217 1222 1215
f 1220 1223 1227
f 902 1228 911
f 1236 578 1233
f 1240 1234 1235
f 1236 1232 1242
f 1246 1231 1229
f 1249 1234 1239
f 1240 920 936
f 1245 1232 1231
f 1246 1230 1249
f 1222 1248 1223
f 1247 1249 1248
f 1225 1244 1224
f 1244 1242 1245
f 1228 938 911
f 1241 936 938
f 1223 1238 1227
f 1248 1239 1238
f 1222 1244 1247
f 1247 1245 1246
f 1226 1243 1225
f 1237 1242 1243
f 1228 1238 1241
f 1241 1239 1240
f 1226 581 1237
f 1237 582 1236
f 1229 1254 1250
f 1230 1260 1234
f 1235 955 920
f 1231 1256 1254
f 1229 1252 1230
f 1233 607 1258
f 1235 1260 1262
f 1233 1256 1232
f 1271 1270 1272
f 1273 1267 1274
f 1275 1264 1276
f 1277 1269 1271
f 1272 965 974
f 1274 1266 1275
f 1276 1265 1277
f 628 1268 1273
f 1259 628 1273
f 1251 1277 1253
f 1255 1274 1275
f 1263 974 956
f 1253 1271 1261
f 1251 1275 1276
f 1259 1274 1257
f 1263 1271 1272
f 1269 1279 1283
f 965 1284 983
f 1267 1280 1266
f 1265 1278 1279
f 618 1282 1268
f 1269 1284 1270
f 1267 1282 1281
f 1266 1278 1264
f 634 1289 1282
f 1283 1291 1284
f 1281 1289 1288
f 1280 1285 1278
f 1279 1290 1283
f 983 1291 992
f 1281 1287 1280
f 1278 1286 1279
f 1289 1295 1288
f 1285 1294 1292
f 1286 1297 1290
f 1291 1001 992
f 1287 1295 1294
f 1285 1293 1286
f 1289 650 1296
f 1291 1297 1298
f 1293 1310 1297
f 1298 1019 1001
f 1294 1306 1304
f 1292 1302 1293
f 1296 664 1308
f 1298 1310 1312
f 1296 1306 1295
f 1292 1304 1300
f 1303 1319 1313
f 1301 1313 1315
f 1307 679 1319
f 1311 1315 1032
f 1305 1307 1319
f 1299 1303 1313
f 1309 1301 1315
f 1017 1311 1032
f 1316 1038 1034
f 1320 1321 1314
f 1314 1317 1316
f 1320 684 1323
f 1330 1343 1328
f 1332 1328 1327
f 1339 1045 1052
f 1332 1325 1335
f 1322 1334 1318
f 1333 1335 1334
f 1318 1336 1039
f 1337 1052 1053
f 1322 1331 1333
f 1333 1330 1332
f 1324 1341 1331
f 1331 1343 1330
f 1035 1337 1053
f 1325 1338 1335
f 1338 1334 1335
f 1346 1064 1347
f 1340 694 1342
f 1342 692 1329
f 1340 683 693
f 1346 713 1345
f 1328 1346 1327
f 1325 1346 1347
f 1350 692 720
f 714 1350 720
f 1045 1348 1073
f 1348 1063 1073
f 1062 1344 389
f 1344 711 389
f 19 6 4
f 9 8 11
f 6 7 5
f 5 61 2
f 10 7 6
f 13 32 9
f 34 10 8
f 8 6 19
f 24 25 26
f 12 11 16
f 15 13 12
f 11 19 17
f 17 19 3
f 23 24 28
f 26 30 29
f 29 30 32
f 28 29 21
f 21 29 13
f 30 31 33
f 159 31 30
f 32 33 34
f 35 39 34
f 36 35 33
f 49 38 35
f 38 41 39
f 41 45 42
f 34 39 42
f 42 45 47
f 42 43 7
f 51 49 36
f 54 51 52
f 138 87 88
f 153 92 89
f 60 59 61
f 60 63 58
f 43 47 63
f 7 43 60
f 46 150 64
f 48 50 104
f 66 56 62
f 82 73 70
f 74 85 83
f 121 134 120
f 80 79 73
f 142 145 77
f 83 81 80
f 84 83 85
f 87 138 84
f 84 139 81
f 91 88 87
f 109 118 136
f 93 91 89
f 91 93 95
f 95 93 97
f 93 92 99
f 40 37 96
f 40 98 148
f 100 103 180
f 50 53 105
f 150 46 44
f 109 88 91
f 116 119 117
f 119 120 118
f 119 116 123
f 125 126 121
f 126 127 134
f 131 129 130
f 126 125 172
f 174 186 127
f 186 184 128
f 188 129 128
f 188 162 130
f 120 134 133
f 131 133 128
f 141 80 81
f 139 132 140
f 135 133 131
f 118 120 135
f 138 136 135
f 138 137 139
f 137 131 132
f 133 134 127
f 132 130 143
f 141 140 143
f 142 143 164
f 166 169 145
f 130 162 164
f 152 155 175
f 154 153 90
f 65 175 176
f 118 109 108
f 99 92 153
f 37 48 101
f 149 153 154
f 90 86 85
f 158 55 52
f 25 158 159
f 52 36 31
f 3 1 20
f 178 177 176
f 157 178 175
f 179 182 181
f 177 178 75
f 103 106 179
f 146 94 180
f 4 2 1
f 77 79 80
f 86 90 89
f 182 112 107
f 117 108 111
f 22 21 194
f 16 17 191
f 20 193 192
f 14 16 190
f 21 15 189
f 22 195 196
f 18 192 191
f 15 14 27
f 194 189 198
f 196 195 204
f 189 27 197
f 191 200 199
f 193 202 201
f 194 203 204
f 191 192 201
f 190 199 197
f 200 209 208
f 198 197 206
f 202 211 210
f 203 212 213
f 200 201 210
f 199 208 206
f 203 198 207
f 205 204 213
f 226 225 220
f 230 229 221
f 226 219 218
f 236 235 217
f 239 216 221
f 230 222 223
f 235 232 218
f 236 215 216
f 206 237 238
f 237 236 239
f 209 233 234
f 234 233 232
f 213 231 241
f 231 230 240
f 207 238 228
f 238 239 229
f 206 208 234
f 237 234 235
f 210 227 233
f 227 226 232
f 213 212 228
f 231 228 229
f 210 211 224
f 227 224 225
f 215 217 246
f 216 244 254
f 222 256 258
f 217 218 248
f 215 242 244
f 219 220 252
f 222 221 254
f 219 250 248
f 269 266 267
f 271 264 263
f 273 262 260
f 275 261 266
f 270 267 268
f 272 263 262
f 274 260 261
f 277 265 264
f 251 253 277
f 243 274 275
f 247 249 272
f 257 270 276
f 245 275 269
f 243 247 273
f 251 271 272
f 257 255 269
f 266 261 279
f 268 267 285
f 263 281 280
f 261 260 278
f 265 283 282
f 266 284 285
f 263 264 282
f 262 280 278
f 283 292 291
f 284 293 294
f 281 282 291
f 280 289 287
f 279 288 293
f 286 285 294
f 281 290 289
f 278 287 288
f 291 300 299
f 287 289 298
f 288 297 302
f 294 303 304
f 289 290 299
f 287 296 297
f 291 292 301
f 294 293 302
f 297 308 318
f 303 320 322
f 298 299 312
f 296 306 308
f 300 301 316
f 303 302 318
f 300 314 312
f 296 298 310
f 309 311 329
f 307 305 323
f 313 315 333
f 319 317 325
f 326 328 345
f 330 336 332
f 324 332 328
f 330 334 342
f 358 356 350
f 366 347 353
f 358 349 348
f 331 359 360
f 359 358 361
f 327 360 365
f 364 366 362
f 331 335 357
f 359 357 356
f 335 341 369
f 357 369 371
f 367 365 360
f 382 377 375
f 368 354 355
f 370 355 352
f 382 385 379
f 350 385 382
f 348 349 382
f 386 351 352
f 353 347 383
f 408 392 393
f 400 397 398
f 395 393 394
f 391 443 394
f 395 396 399
f 402 401 398
f 397 399 420
f 408 395 397
f 24 414 412
f 405 400 401
f 404 403 401
f 406 408 400
f 406 407 392
f 23 411 414
f 415 416 412
f 415 402 418
f 410 415 414
f 410 404 402
f 416 418 419
f 416 417 526
f 418 398 420
f 420 425 421
f 419 421 422
f 421 424 435
f 425 427 424
f 428 431 427
f 420 399 428
f 428 429 433
f 396 429 428
f 422 435 437
f 438 437 54
f 469 468 506
f 521 471 470
f 443 441 442
f 442 441 440
f 429 442 445
f 396 394 442
f 446 518 432
f 484 436 434
f 448 446 444
f 463 455 450
f 464 466 455
f 493 491 492
f 461 463 453
f 510 509 457
f 464 463 461
f 466 464 465
f 465 506 468
f 462 507 465
f 468 469 472
f 504 490 488
f 470 472 474
f 475 474 472
f 478 474 475
f 480 473 474
f 477 423 426
f 516 479 426
f 542 485 483
f 105 53 436
f 518 516 430
f 488 514 472
f 489 491 115
f 491 489 490
f 122 115 491
f 124 122 493
f 494 493 502
f 498 497 499
f 494 537 171
f 495 547 537
f 496 545 547
f 496 497 548
f 548 497 498
f 501 502 492
f 499 497 496
f 462 461 509
f 507 462 508
f 499 501 503
f 503 492 490
f 506 505 503
f 507 505 506
f 500 499 505
f 501 496 495
f 500 508 511
f 511 508 509
f 510 532 530
f 512 534 532
f 530 528 498
f 538 523 520
f 522 524 471
f 539 538 447
f 487 488 490
f 480 517 521
f 481 434 423
f 517 519 522
f 466 467 471
f 158 526 438
f 25 412 526
f 417 422 438
f 409 390 392
f 539 540 541
f 538 541 525
f 179 542 543
f 540 452 456
f 485 542 179
f 515 543 542
f 390 391 393
f 457 509 461
f 467 468 470
f 182 543 486
f 489 113 110
f 411 556 555
f 405 551 552
f 553 554 409
f 403 413 551
f 410 555 550
f 196 556 411
f 552 553 407
f 404 550 413
f 555 563 558
f 196 205 564
f 550 558 557
f 559 560 552
f 561 562 554
f 564 563 555
f 552 560 561
f 557 559 551
f 567 568 560
f 558 566 565
f 569 570 562
f 572 571 563
f 560 568 569
f 565 567 559
f 563 571 566
f 205 214 572
f 583 577 578
f 587 580 579
f 576 577 583
f 593 573 575
f 579 574 596
f 223 580 587
f 592 575 576
f 574 573 593
f 595 594 565
f 596 593 594
f 591 590 568
f 591 592 589
f 241 588 572
f 240 587 588
f 585 595 566
f 586 596 595
f 565 594 591
f 594 593 592
f 590 584 569
f 589 583 584
f 572 588 585
f 588 587 586
f 569 584 581
f 584 583 582
f 573 597 601
f 609 599 574
f 258 611 580
f 575 601 603
f 599 597 573
f 577 605 607
f 580 611 609
f 603 605 577
f 620 619 621
f 616 617 623
f 613 615 625
f 619 614 627
f 268 620 622
f 615 616 624
f 614 613 626
f 617 618 628
f 606 623 628
f 627 626 598
f 602 625 624
f 276 622 612
f 621 627 600
f 598 626 625
f 624 623 606
f 612 622 621
f 619 635 630
f 268 286 636
f 631 632 616
f 614 630 629
f 633 634 618
f 636 635 619
f 616 632 633
f 629 631 615
f 641 642 634
f 644 643 635
f 632 640 641
f 637 639 631
f 643 638 630
f 286 295 644
f 639 640 632
f 638 637 629
f 648 649 641
f 637 645 647
f 651 646 638
f 304 652 644
f 639 647 648
f 646 645 637
f 641 649 650
f 644 652 651
f 666 656 646
f 322 668 652
f 647 658 660
f 656 654 645
f 649 662 664
f 652 668 666
f 660 662 649
f 645 654 658
f 657 669 675
f 655 671 669
f 661 675 679
f 667 337 671
f 345 673 672
f 677 681 676
f 673 677 670
f 676 681 684
f 697 689 690
f 353 688 704
f 687 689 697
f 699 698 678
f 700 697 698
f 701 699 674
f 362 704 702
f 678 698 696
f 698 697 695
f 682 696 706
f 696 695 708
f 703 700 699
f 374 710 715
f 694 693 705
f 692 694 707
f 715 710 712
f 715 718 690
f 687 716 715
f 692 691 719
f 353 388 717
f 737 721 722
f 729 726 727
f 724 722 723
f 2 61 723
f 724 725 728
f 731 730 727
f 726 728 754
f 737 724 726
f 743 748 746
f 734 729 730
f 733 732 730
f 735 737 729
f 735 736 721
f 741 739 748
f 749 750 746
f 749 731 752
f 738 749 748
f 738 733 731
f 750 752 753
f 750 751 863
f 752 727 754
f 754 759 755
f 753 755 756
f 755 758 769
f 759 761 758
f 762 765 761
f 754 728 762
f 762 763 767
f 725 763 762
f 756 769 771
f 772 771 775
f 793 792 843
f 856 795 794
f 61 59 778
f 778 59 58
f 763 778 780
f 725 723 778
f 781 853 766
f 809 770 768
f 67 781 779
f 787 783 69
f 788 790 783
f 826 824 825
f 785 787 72
f 847 846 76
f 788 787 785
f 790 788 789
f 789 843 792
f 786 844 789
f 792 793 796
f 841 823 814
f 794 796 798
f 800 798 796
f 802 798 800
f 804 797 798
f 801 757 760
f 851 803 760
f 878 808 805
f 810 773 770
f 853 851 764
f 814 850 796
f 822 824 820
f 824 822 823
f 827 820 824
f 829 827 826
f 831 826 839
f 835 834 836
f 831 874 871
f 832 884 874
f 833 882 884
f 833 834 886
f 886 834 835
f 838 839 825
f 836 834 833
f 786 785 846
f 844 786 845
f 836 838 840
f 840 825 823
f 843 842 840
f 844 842 843
f 837 836 842
f 838 833 832
f 837 845 848
f 848 845 846
f 847 869 867
f 144 168 869
f 867 865 835
f 875 858 855
f 857 859 795
f 176 875 782
f 813 814 823
f 804 852 856
f 806 768 757
f 852 854 857
f 790 791 795
f 862 863 772
f 745 746 863
f 751 756 772
f 20 1 721
f 176 177 876
f 875 876 860
f 877 878 879
f 177 71 784
f 808 878 877
f 849 879 878
f 1 2 722
f 76 846 785
f 791 792 794
f 880 879 812
f 822 818 815
f 739 892 891
f 734 888 889
f 890 193 20
f 732 747 888
f 738 891 887
f 894 892 739
f 889 890 736
f 733 887 747
f 891 900 896
f 894 903 901
f 887 896 895
f 897 898 889
f 899 202 193
f 901 900 891
f 889 898 899
f 895 897 888
f 906 907 898
f 896 905 904
f 908 211 202
f 910 909 900
f 898 907 908
f 904 906 897
f 900 909 905
f 903 912 910
f 922 917 220
f 926 919 918
f 916 917 922
f 932 913 915
f 918 914 935
f 921 919 926
f 931 915 916
f 914 913 932
f 934 933 904
f 935 932 933
f 930 929 907
f 930 931 928
f 939 927 910
f 937 926 927
f 924 934 905
f 925 935 934
f 904 933 930
f 933 932 931
f 929 923 908
f 928 922 923
f 910 927 924
f 927 926 925
f 908 923 224
f 923 922 225
f 913 940 944
f 950 942 914
f 954 952 919
f 915 944 946
f 942 940 913
f 917 948 252
f 919 952 950
f 946 948 917
f 964 963 967
f 961 962 969
f 958 960 971
f 963 959 973
f 966 964 968
f 960 961 970
f 959 958 972
f 962 265 277
f 949 969 277
f 973 972 941
f 945 971 970
f 975 968 953
f 967 973 943
f 941 972 971
f 970 969 949
f 953 968 967
f 963 981 977
f 966 984 982
f 978 979 961
f 959 977 976
f 980 283 265
f 982 981 963
f 961 979 980
f 976 978 960
f 989 292 283
f 991 990 981
f 979 988 989
f 985 987 978
f 990 986 977
f 984 993 991
f 987 988 979
f 986 985 976
f 997 998 989
f 985 994 996
f 999 995 986
f 1002 1000 991
f 987 996 997
f 995 994 985
f 989 998 301
f 991 1000 999
f 1014 1006 995
f 1018 1016 1000
f 996 1008 1010
f 1006 1004 994
f 998 1012 316
f 1000 1016 1014
f 1010 1012 998
f 994 1004 1008
f 1007 1020 1026
f 1005 1022 1020
f 1011 1026 333
f 1015 1032 1022
f 1037 1025 1023
f 1029 1031 1027
f 1025 1029 1021
f 1027 1031 342
f 1048 1042 1043
f 1045 1040 1056
f 1041 1042 1048
f 1050 1049 1028
f 1051 1048 1049
f 1055 1050 1024
f 1052 1056 1054
f 1028 1049 1047
f 1049 1048 1046
f 1030 1047 1059
f 1047 1046 1061
f 1057 1051 1050
f 1065 1067 1068
f 355 354 1058
f 352 355 1060
f 1068 1067 380
f 1068 1071 1043
f 1041 1070 1068
f 352 1044 1072
f 1045 1073 1069
f 1090 1077 1075
f 1080 1079 1082
f 1077 1078 1076
f 1076 443 391
f 1081 1078 1077
f 1084 1099 1080
f 1101 1081 1079
f 1079 1077 1090
f 742 744 1093
f 1083 1082 1087
f 1086 1084 1083
f 1082 1090 1088
f 1088 1090 1074
f 740 742 1095
f 1093 1097 1096
f 1096 1097 1099
f 1095 1096 1091
f 1091 1096 1084
f 1097 1098 1100
f 1190 1098 1097
f 1099 1100 1101
f 1102 1106 1101
f 1103 1102 1100
f 1116 1105 1102
f 1105 1108 1106
f 1108 1112 1109
f 1101 1106 1109
f 1109 1112 1114
f 1109 1110 1078
f 1118 1116 1103
f 774 1118 1119
f 1172 1134 1135
f 1185 1139 1136
f 1120 441 443
f 1120 1122 440
f 1110 1114 1122
f 1078 1110 1120
f 1113 1182 1123
f 1115 1117 1150
f 448 439 1121
f 1129 454 451
f 1125 1132 1130
f 1159 1168 1158
f 1127 460 454
f 1176 513 458
f 1130 1128 1127
f 1131 1130 1132
f 1134 1172 1131
f 1131 1173 1128
f 1138 1135 1134
f 1154 1156 1170
f 1140 1138 1136
f 1138 1140 1141
f 1141 1140 1144
f 1140 1139 1146
f 1107 1104 1143
f 1107 1145 1180
f 1149 1151 1201
f 1117 773 810
f 1182 1113 1111
f 1154 1135 1138
f 821 1157 1155
f 1157 1158 1156
f 1157 821 828
f 830 1160 1159
f 1160 1161 1168
f 1165 1163 1164
f 1160 830 872
f 1198 1206 1161
f 1206 1204 1162
f 1207 1163 1162
f 1207 1192 1164
f 1158 1168 1167
f 1165 1167 1162
f 1175 1127 1128
f 1173 1166 1174
f 1169 1167 1165
f 1156 1158 1169
f 1172 1170 1169
f 1172 1171 1173
f 1171 1165 1166
f 1167 1168 1161
f 1166 1164 1177
f 1175 1174 1177
f 1176 1177 1194
f 1196 535 513
f 1164 1192 1194
f 1184 1187 1199
f 1186 1185 1137
f 1124 1199 539
f 1156 1154 1153
f 1146 1139 1185
f 1104 1115 1147
f 1181 1185 1186
f 1137 1133 1132
f 861 776 1119
f 744 861 1190
f 1119 1103 1098
f 1074 390 409
f 1200 540 539
f 1189 1200 1199
f 877 880 1202
f 540 1200 1126
f 1151 811 877
f 1179 1142 1201
f 1075 391 390
f 458 460 1127
f 1133 1137 1136
f 880 817 1152
f 1155 1153 816
f 1092 1091 1213
f 1087 1088 1211
f 409 554 1212
f 1085 1087 1210
f 1091 1086 1209
f 1092 1214 893
f 1089 1212 1211
f 1086 1085 1094
f 1213 1209 1216
f 893 1214 1221
f 1209 1094 1215
f 1211 1218 1217
f 554 562 1219
f 1213 1220 1221
f 1211 1212 1219
f 1210 1217 1215
f 1218 1225 1224
f 1216 1215 1222
f 562 570 1226
f 1220 1227 1228
f 1218 1219 1226
f 1217 1224 1222
f 1220 1216 1223
f 902 1221 1228
f 1236 582 578
f 1240 1239 1234
f 1236 1233 1232
f 1246 1245 1231
f 1249 1230 1234
f 1240 1235 920
f 1245 1242 1232
f 1246 1229 1230
f 1222 1247 1248
f 1247 1246 1249
f 1225 1243 1244
f 1244 1243 1242
f 1228 1241 938
f 1241 1240 936
f 1223 1248 1238
f 1248 1249 1239
f 1222 1224 1244
f 1247 1244 1245
f 1226 1237 1243
f 1237 1236 1242
f 1228 1227 1238
f 1241 1238 1239
f 1226 570 581
f 1237 581 582
f 1229 1231 1254
f 1230 1252 1260
f 1235 1262 955
f 1231 1232 1256
f 1229 1250 1252
f 1233 578 607
f 1235 1234 1260
f 1233 1258 1256
f 1271 1269 1270
f 1273 1268 1267
f 1275 1266 1264
f 1277 1265 1269
f 1272 1270 965
f 1274 1267 1266
f 1276 1264 1265
f 628 618 1268
f 1259 608 628
f 1251 1276 1277
f 1255 1257 1274
f 1263 1272 974
f 1253 1277 1271
f 1251 1255 1275
f 1259 1273 1274
f 1263 1261 1271
f 1269 1265 1279
f 965 1270 1284
f 1267 1281 1280
f 1265 1264 1278
f 618 634 1282
f 1269 1283 1284
f 1267 1268 1282
f 1266 1280 1278
f 634 642 1289
f 1283 1290 1291
f 1281 1282 1289
f 1280 1287 1285
f 1279 1286 1290
f 983 1284 1291
f 1281 1288 1287
f 1278 1285 1286
f 1289 1296 1295
f 1285 1287 1294
f 1286 1293 1297
f 1291 1298 1001
f 1287 1288 1295
f 1285 1292 1293
f 1289 642 650
f 1291 1290 1297
f 1293 1302 1310
f 1298 1312 1019
f 1294 1295 1306
f 1292 1300 1302
f 1296 650 664
f 1298 1297 1310
f 1296 1308 1306
f 1292 1294 1304
f 1303 1305 1319
f 1301 1299 1313
f 1307 663 679
f 1311 1309 1315
f 1316 1317 1038
f 1320 1323 1321
f 1314 1321 1317
f 1320 680 684
f 1332 1330 1328
f 1339 1326 1045
f 1332 1327 1325
f 1322 1333 1334
f 1333 1332 1335
f 1318 1334 1336
f 1337 1339 1052
f 1322 1324 1331
f 1333 1331 1330
f 1324 685 1341
f 1331 1341 1343
f 1338 1336 1334
f 1346 1345 1064
f 1340 693 694
f 1342 694 692
f 1346 1349 713
f 1328 1349 1346
f 1325 1327 1346
f 1350 1329 692
f 1045 1326 1348
